# xmcd
#
# Track frame offsets: 
#        150
#        14805
#        31081
#        44345
#        63081
#        79731
#        90393
#        104510
#        123730
#        137584
#        151428
#        163689
#        177610
#        189115
#        201051
#        215248
#        227693
#        243165
#        255452
#        269849
#
# Disc length: 3768 seconds
#
# Revision: 0
# Processed by: cddbd v1.5.2PL0 Copyright (c) Steve Scherf et al.
# Submitted via: ExactAudioCopyFreeDBPlugin 1.0
#
DISCID=190eb614
DTITLE=Various Artist - Super Country CD3
DYEAR=1900
DGENRE=Country
TTITLE0=John Denver - Take Me Home Country Road
TTITLE1=Lobo - Stoney
TTITLE2=Scott Mckenzie - San Francisco
TTITLE3=Kenny Rogers and Dolly Parton - Island In The Stream
TTITLE4=Gilbert and Dolly Parton - Alone Again
TTITLE5=The Everly Brothers - All I have To Do Is Dream
TTITLE6=Neil Young - Heart Of Gold
TTITLE7=The Marmalade - Reflection Of My Life
TTITLE8=Keith Carradine - I'm Easy
TTITLE9=Glen Campbell - Tom Dooley
TTITLE10=Peter, Paul and Mary - Gone The Rainbow
TTITLE11=Glen Campbell - Without You
TTITLE12=Johnny Horton - The Battle Of New Orleans
TTITLE13=Charlie Rich - The Most Beautiful Girl InThe World
TTITLE14=Kingston Trio - Where Have The Flowers Gone
TTITLE15=The New Christy Minstrels - Today
TTITLE16=John Denver - I'm Sorry
TTITLE17=Hank Williams - Your Cheatin' Heart
TTITLE18=Dr. Hook - If Not You
TTITLE19=Eddy Arnold - Then You Can Tell Me Goodbye
EXTD=
EXTT0=
EXTT1=
EXTT2=
EXTT3=
EXTT4=
EXTT5=
EXTT6=
EXTT7=
EXTT8=
EXTT9=
EXTT10=
EXTT11=
EXTT12=
EXTT13=
EXTT14=
EXTT15=
EXTT16=
EXTT17=
EXTT18=
EXTT19=
PLAYORDER=
